# xmcd
# 
# Track frame offsets:
#     150
#     30336
#     65743
#     101866
#     132447
#     172345
#     200725
# 
# Disc length: 3073
# 
# Revision: 0
# Processed by: cddbd v1.5.2PL0 Copyright (c) Steve Scherf et al.
# Submitted via: BonkEnc v1.0
# 
DISCID=6c0bff07
DTITLE=Bernlef J. - Hersenschimmen_CD3
DYEAR=0
DGENRE=Audiobook
TTITLE0=Ik blijf voor het opengeslagen album zitten
TTITLE1=De man op de bank met zijn marineblauwe broek
TTITLE2=Vaak zwaai ik vanaf de brug naar de tuinder
TTITLE3=Terwijl zij zich in de slaapkamer uitkleedt
TTITLE4=Ik trek de la uit het bureau en keer hem om
TTITLE5=Het is altijd vervelend wanneer iemand je geen antwoord geeft
TTITLE6=Robert staat op en trekt zich met gestrekte voorpoten
EXTD=
EXTT0=
EXTT1=
EXTT2=
EXTT3=
EXTT4=
EXTT5=
EXTT6=
PLAYORDER=
